<svg width="471" height="240" viewBox="0 0 471 240" fill="none" xmlns="http://www.w3.org/2000/svg">
<path d="M30 140H60C65.3043 140 70.3914 142.107 74.1421 145.858C77.8929 149.609 80 154.696 80 160V190C80 195.304 77.8929 200.391 74.1421 204.142C70.3914 207.893 65.3043 210 60 210H50C44.6957 210 39.6086 207.893 35.8579 204.142C32.1071 200.391 30 195.304 30 190V120C30 96.1305 39.4821 73.2387 56.3604 56.3604C73.2387 39.4821 96.1305 30 120 30C143.869 30 166.761 39.4821 183.64 56.3604C200.518 73.2387 210 96.1305 210 120V190C210 195.304 207.893 200.391 204.142 204.142C200.391 207.893 195.304 210 190 210H180C174.696 210 169.609 207.893 165.858 204.142C162.107 200.391 160 195.304 160 190V160C160 154.696 162.107 149.609 165.858 145.858C169.609 142.107 174.696 140 180 140H210" stroke="white" stroke-width="15" stroke-linecap="round" stroke-linejoin="round"/>
<path d="M120 163H120.08" stroke="white" stroke-width="15" stroke-linecap="round" stroke-linejoin="round"/>
<line x1="119.5" y1="125.7" x2="119.5" y2="134.7" stroke="white" stroke-width="15" stroke-linecap="round"/>
<path d="M96.72 90.9999C98.6008 85.6533 102.313 81.1448 107.2 78.273C112.086 75.4012 117.831 74.3514 123.417 75.3096C129.004 76.2678 134.071 79.1721 137.721 83.5081C141.371 87.8442 143.368 93.3321 143.36 98.9999C143.36 115 119.36 123 119.36 123" stroke="white" stroke-width="15" stroke-linecap="round" stroke-linejoin="round"/>
<path d="M264.83 37.1818V107H250.068V37.1818H264.83ZM301.724 107H276.974V37.1818H301.929C308.952 37.1818 314.997 38.5795 320.065 41.375C325.134 44.1477 329.031 48.1364 331.759 53.3409C334.509 58.5455 335.884 64.7727 335.884 72.0227C335.884 79.2955 334.509 85.5455 331.759 90.7727C329.031 96 325.111 100.011 319.997 102.807C314.906 105.602 308.815 107 301.724 107ZM291.736 94.3523H301.111C305.474 94.3523 309.145 93.5795 312.122 92.0341C315.122 90.4659 317.372 88.0455 318.872 84.7727C320.395 81.4773 321.156 77.2273 321.156 72.0227C321.156 66.8636 320.395 62.6477 318.872 59.375C317.372 56.1023 315.134 53.6932 312.156 52.1477C309.179 50.6023 305.509 49.8295 301.145 49.8295H291.736V94.3523ZM410.977 72.0909C410.977 79.7045 409.534 86.1818 406.648 91.5227C403.784 96.8636 399.875 100.943 394.92 103.761C389.989 106.557 384.443 107.955 378.284 107.955C372.08 107.955 366.511 106.545 361.58 103.727C356.648 100.909 352.75 96.8295 349.886 91.4886C347.023 86.1477 345.591 79.6818 345.591 72.0909C345.591 64.4773 347.023 58 349.886 52.6591C352.75 47.3182 356.648 43.25 361.58 40.4545C366.511 37.6364 372.08 36.2273 378.284 36.2273C384.443 36.2273 389.989 37.6364 394.92 40.4545C399.875 43.25 403.784 47.3182 406.648 52.6591C409.534 58 410.977 64.4773 410.977 72.0909ZM396.011 72.0909C396.011 67.1591 395.273 63 393.795 59.6136C392.341 56.2273 390.284 53.6591 387.625 51.9091C384.966 50.1591 381.852 49.2841 378.284 49.2841C374.716 49.2841 371.602 50.1591 368.943 51.9091C366.284 53.6591 364.216 56.2273 362.739 59.6136C361.284 63 360.557 67.1591 360.557 72.0909C360.557 77.0227 361.284 81.1818 362.739 84.5682C364.216 87.9545 366.284 90.5227 368.943 92.2727C371.602 94.0227 374.716 94.8977 378.284 94.8977C381.852 94.8977 384.966 94.0227 387.625 92.2727C390.284 90.5227 392.341 87.9545 393.795 84.5682C395.273 81.1818 396.011 77.0227 396.011 72.0909ZM421.912 107V37.1818H436.673V94.8295H466.605V107H421.912Z" fill="white"/>
<path d="M250.068 203V133.182H297.114V145.352H264.83V161.989H294.693V174.159H264.83V190.83H297.25V203H250.068ZM320.884 203H305.065L329.168 133.182H348.19L372.259 203H356.44L338.952 149.136H338.406L320.884 203ZM319.895 175.557H357.259V187.08H319.895V175.557ZM380.662 203V133.182H408.207C413.48 133.182 417.98 134.125 421.707 136.011C425.457 137.875 428.31 140.523 430.264 143.955C432.241 147.364 433.23 151.375 433.23 155.989C433.23 160.625 432.23 164.614 430.23 167.955C428.23 171.273 425.332 173.818 421.537 175.591C417.764 177.364 413.196 178.25 407.832 178.25H389.389V166.386H405.446C408.264 166.386 410.605 166 412.469 165.227C414.332 164.455 415.719 163.295 416.628 161.75C417.56 160.205 418.026 158.284 418.026 155.989C418.026 153.67 417.56 151.716 416.628 150.125C415.719 148.534 414.321 147.33 412.435 146.511C410.571 145.67 408.219 145.25 405.378 145.25H395.423V203H380.662ZM418.366 171.227L435.719 203H419.423L402.446 171.227H418.366Z" fill="white"/>
</svg>
