<svg width="60" height="61" viewBox="0 0 60 61" fill="none" xmlns="http://www.w3.org/2000/svg">
<path d="M14.5 28.4167L5 55.1667L31.75 45.6917" stroke="#0B0B0F" stroke-width="5" stroke-linecap="round" stroke-linejoin="round"/>
<path d="M10 7.66666H10.025" stroke="#F0BA17" stroke-width="5" stroke-linecap="round" stroke-linejoin="round"/>
<path d="M55 20.1667H55.025" stroke="#B91C1C" stroke-width="5" stroke-linecap="round" stroke-linejoin="round"/>
<path d="M37.5 5.16666H37.525" stroke="#8DCAAD" stroke-width="5" stroke-linecap="round" stroke-linejoin="round"/>
<path d="M55 50.1667H55.025" stroke="#F0BA17" stroke-width="5" stroke-linecap="round" stroke-linejoin="round"/>
<path d="M55 5.16666L49.4 7.04166C47.806 7.57263 46.4458 8.64076 45.5521 10.0635C44.6583 11.4862 44.2864 13.1751 44.5 14.8417C44.75 16.9917 43.075 18.9167 40.875 18.9167H39.925C37.775 18.9167 35.925 20.4167 35.525 22.5167L35 25.1667" stroke="#F0BA17" stroke-width="5" stroke-linecap="round" stroke-linejoin="round"/>
<path d="M55 32.6667L52.95 31.8417C50.8 30.9917 48.4 32.3417 48 34.6167C47.725 36.3667 46.2 37.6667 44.425 37.6667H42.5" stroke="#8DCAAD" stroke-width="5" stroke-linecap="round" stroke-linejoin="round"/>
<path d="M27.5 5.16666L28.325 7.21666C29.175 9.36666 27.825 11.7667 25.55 12.1667C23.8 12.4167 22.5 13.9667 22.5 15.7417V17.6667" stroke="#B91C1C" stroke-width="5" stroke-linecap="round" stroke-linejoin="round"/>
<path d="M27.4998 32.6667C32.3248 37.4917 34.5748 43.0917 32.4998 45.1667C30.4248 47.2417 24.8248 44.9917 19.9998 40.1667C15.1748 35.3417 12.9248 29.7417 14.9998 27.6667C17.0748 25.5917 22.6748 27.8417 27.4998 32.6667Z" stroke="#0B0B0F" stroke-width="5" stroke-linecap="round" stroke-linejoin="round"/>
</svg>
