<svg width="24" height="25" viewBox="0 0 24 25" fill="none" xmlns="http://www.w3.org/2000/svg">
<path d="M10.733 5.74266C13.0624 5.46506 15.4186 5.95747 17.4419 7.1447C19.4652 8.33193 21.0442 10.1487 21.938 12.3177C22.0214 12.5422 22.0214 12.7891 21.938 13.0137C21.5705 13.9047 21.0848 14.7422 20.494 15.5037" stroke="#ADADAA" stroke-width="2" stroke-linecap="round" stroke-linejoin="round"/>
<path d="M14.084 14.8247C13.5182 15.3711 12.7604 15.6735 11.9738 15.6667C11.1872 15.6598 10.4348 15.3443 9.87856 14.7881C9.32233 14.2319 9.00683 13.4794 8.99999 12.6929C8.99316 11.9063 9.29554 11.1485 9.84201 10.5827" stroke="#ADADAA" stroke-width="2" stroke-linecap="round" stroke-linejoin="round"/>
<path d="M17.479 18.1657C16.1525 18.9514 14.6725 19.4427 13.1394 19.6061C11.6063 19.7694 10.056 19.6011 8.59365 19.1125C7.13133 18.624 5.79121 17.8265 4.66423 16.7744C3.53725 15.7223 2.64977 14.44 2.06202 13.0147C1.97868 12.7901 1.97868 12.5432 2.06202 12.3187C2.94865 10.1685 4.50869 8.36391 6.50802 7.17566" stroke="#ADADAA" stroke-width="2" stroke-linecap="round" stroke-linejoin="round"/>
<path d="M2 2.66666L22 22.6667" stroke="#ADADAA" stroke-width="2" stroke-linecap="round" stroke-linejoin="round"/>
</svg>
