<svg width="24" height="25" viewBox="0 0 24 25" fill="none" xmlns="http://www.w3.org/2000/svg">
<path d="M2.062 13.2053C1.97866 12.9808 1.97866 12.7338 2.062 12.5093C2.8737 10.5411 4.25152 8.85833 6.02077 7.67419C7.79003 6.49005 9.87104 5.85791 12 5.85791C14.129 5.85791 16.21 6.49005 17.9792 7.67419C19.7485 8.85833 21.1263 10.5411 21.938 12.5093C22.0213 12.7338 22.0213 12.9808 21.938 13.2053C21.1263 15.1734 19.7485 16.8563 17.9792 18.0404C16.21 19.2245 14.129 19.8567 12 19.8567C9.87104 19.8567 7.79003 19.2245 6.02077 18.0404C4.25152 16.8563 2.8737 15.1734 2.062 13.2053Z" stroke="#ADADAA" stroke-width="2" stroke-linecap="round" stroke-linejoin="round"/>
<path d="M12 15.8572C13.6569 15.8572 15 14.514 15 12.8572C15 11.2003 13.6569 9.85718 12 9.85718C10.3431 9.85718 9 11.2003 9 12.8572C9 14.514 10.3431 15.8572 12 15.8572Z" stroke="#ADADAA" stroke-width="2" stroke-linecap="round" stroke-linejoin="round"/>
</svg>
